<svg xmlns="http://www.w3.org/2000/svg" xml:space="preserve" id="incoming-call" x="0" y="0" version="1.1" viewBox="0 0 29 29">
  <path d="M21.202 28.022a6.33 6.33 0 0 1-3.146-.835l-.144-.083A42.452 42.452 0 0 1 2.607 12.122l-.714-1.189a6.271 6.271 0 0 1 .946-7.668l1.422-1.422a2.98 2.98 0 0 1 4.212 0l3.135 3.135a2.986 2.986 0 0 1 .489 3.567l-1.178 2.092a.321.321 0 0 0 .053.382l6.979 6.979a.321.321 0 0 0 .383.053l2.09-1.178h.001a2.986 2.986 0 0 1 3.567.489l3.137 3.136a2.982 2.982 0 0 1 0 4.212l-1.486 1.486a6.283 6.283 0 0 1-4.441 1.826zM6.367 2.971a.977.977 0 0 0-.692.286L4.253 4.679a4.274 4.274 0 0 0-.644 5.225l.714 1.189A40.45 40.45 0 0 0 18.908 25.37l.144.083c1.685.963 3.814.688 5.176-.672l1.486-1.486a.979.979 0 0 0 0-1.384l-3.137-3.136a.98.98 0 0 0-1.172-.161l-2.091 1.178a2.328 2.328 0 0 1-2.778-.381l-6.979-6.979a2.325 2.325 0 0 1-.381-2.777l1.178-2.092a.983.983 0 0 0-.161-1.172L7.059 3.257a.976.976 0 0 0-.692-.286z"></path>
  <path d="M17.121 12.879a.999.999 0 0 1-.707-1.707l5.396-5.396a.999.999 0 1 1 1.414 1.414l-5.396 5.396a.997.997 0 0 1-.707.293z"></path>
  <path d="M20.791 13.379h-4.17a1 1 0 0 1-1-1V8.392a1 1 0 1 1 2 0v2.987h3.17a1 1 0 1 1 0 2z"></path>
</svg>
